<svg id="Capa_1" data-name="Capa 1" xmlns="http://www.w3.org/2000/svg" viewBox="0 0 158 50"><defs><style>.cls-1{fill:#424143;}.cls-2{fill:#ebb830;}</style></defs><title>Mesa de trabajo 1</title><path class="cls-1" d="M1.94,14.56h4l4,10.59,4-10.59h3.83l-6,15.09H7.91Z"/><path class="cls-1" d="M16.8,26.39c0-2.59,1.35-3.51,5-3.51.72,0,1.62,0,2.68.14,0-1.4-.65-1.8-2.73-1.8a11.81,11.81,0,0,0-3.81.59L17.77,19a16.49,16.49,0,0,1,4.55-.59C26.67,18.46,28,19.54,28,23v6.64H25.48l-.34-1a8.1,8.1,0,0,1-4.41,1.28C18,29.92,16.8,28.82,16.8,26.39Zm7.73.16V25.28c-1.1-.09-2-.14-2.55-.14-1.28,0-1.73.18-1.73,1s.52,1.06,1.44,1.06A5.81,5.81,0,0,0,24.53,26.54Z"/><path class="cls-1" d="M30.21,18.73h2.64l.29,1a7.1,7.1,0,0,1,3.92-1.26h.72v3.13h-.59a8,8,0,0,0-3.47.61v7.46H30.21Z"/><path class="cls-1" d="M38.72,26.39c0-2.59,1.35-3.51,5-3.51.72,0,1.62,0,2.68.14,0-1.4-.65-1.8-2.73-1.8a11.81,11.81,0,0,0-3.81.59L39.69,19a16.48,16.48,0,0,1,4.55-.59C48.59,18.46,50,19.54,50,23v6.64H47.39l-.34-1a8.1,8.1,0,0,1-4.41,1.28C39.92,29.92,38.72,28.82,38.72,26.39Zm7.73.16V25.28c-1.1-.09-2-.14-2.55-.14-1.28,0-1.73.18-1.73,1s.52,1.06,1.44,1.06A5.81,5.81,0,0,0,46.45,26.54Z"/><path class="cls-1" d="M51.7,24.35c0-4.14,1.69-5.74,6-5.74a13,13,0,0,1,3.6.5L61.09,22a12.59,12.59,0,0,0-3-.38c-2.16,0-2.79.56-2.79,2.68s.63,2.7,2.79,2.7a12.59,12.59,0,0,0,3-.38l.2,2.93a13,13,0,0,1-3.6.5C53.39,30.07,51.7,28.5,51.7,24.35Z"/><path class="cls-1" d="M62.6,26.39c0-2.59,1.35-3.51,5-3.51.72,0,1.62,0,2.68.14,0-1.4-.65-1.8-2.73-1.8a11.81,11.81,0,0,0-3.81.59L63.57,19a16.49,16.49,0,0,1,4.55-.59c4.35,0,5.72,1.08,5.72,4.55v6.64H71.27l-.34-1a8.1,8.1,0,0,1-4.41,1.28C63.79,29.92,62.6,28.82,62.6,26.39Zm7.73.16V25.28c-1.1-.09-2-.14-2.55-.14-1.28,0-1.73.18-1.73,1s.52,1.06,1.44,1.06A5.81,5.81,0,0,0,70.33,26.54Z"/><path class="cls-1" d="M76.23,13.75h3.51v15.9H76.23Z"/><path class="cls-1" d="M82.42,13.75h3.51v15.9H82.42Z"/><path class="cls-1" d="M88.44,14h3.69v3H88.44Zm.09,4.73H92V29.65H88.53Z"/><path class="cls-1" d="M51,37.88c0-2.29.89-3.14,3.25-3.14s3.12.78,3.12,2.78c0,.24,0,.57,0,.87H52.55c.12,1.05.64,1.35,2.07,1.35a6,6,0,0,0,2.28-.4l.1,1.29a7.26,7.26,0,0,1-2.45.37C51.91,41,51,40.23,51,37.88Zm4.86-.61c-.09-1-.48-1.3-1.6-1.3s-1.58.31-1.68,1.3Z"/><path class="cls-1" d="M58.78,34.89h1.15l.15.57a4.31,4.31,0,0,1,2.38-.72c1.53,0,2.23.67,2.23,2.17v3.95H63.15V37.31c0-.87-.32-1.19-1.16-1.19a3.15,3.15,0,0,0-1.67.51v4.22H58.78Z"/><path class="cls-1" d="M66.11,37.88c0-2.29.89-3.14,3.25-3.14s3.12.78,3.12,2.78c0,.24,0,.57,0,.87H67.69c.12,1.05.64,1.35,2.07,1.35a6,6,0,0,0,2.28-.4l.1,1.29a7.26,7.26,0,0,1-2.45.37C67.06,41,66.11,40.23,66.11,37.88ZM71,37.28c-.09-1-.48-1.3-1.6-1.3s-1.58.31-1.68,1.3Z"/><path class="cls-1" d="M73.93,34.89h1.15l.16.59a4,4,0,0,1,2.25-.74h.33v1.39h-.28a4.19,4.19,0,0,0-2.08.48v4.24H73.93Z"/><path class="cls-1" d="M79.11,43.22l.11-1.31a6.61,6.61,0,0,0,2.19.36c1.46,0,2-.36,2-1.41v-.43a4.19,4.19,0,0,1-2.18.57c-1.87,0-2.62-.9-2.62-3.13s.75-3.12,2.62-3.12a4.38,4.38,0,0,1,2.41.69l.15-.54h1.15v6c0,2-.92,2.7-3.38,2.7A8.28,8.28,0,0,1,79.11,43.22Zm4.26-4.08V36.6a3.2,3.2,0,0,0-1.76-.52c-1.11,0-1.48.45-1.48,1.79s.37,1.78,1.48,1.78A3.2,3.2,0,0,0,83.37,39.13Z"/><path class="cls-1" d="M86.5,42.1h.56c.61,0,.77-.14,1-.83l.21-.52-2.43-5.87h1.67l1.53,4,1.46-4h1.58l-2.72,7c-.48,1.24-.93,1.52-2.3,1.52H86.5Z"/><path class="cls-2" d="M155.86.77a1.11,1.11,0,0,0-.9-.46H133.62a1.11,1.11,0,0,0-1.05.76l-6.18,18.46L120.16,1.06a1.11,1.11,0,0,0-1-.75H97.77a1.11,1.11,0,0,0-1,1.47c.09.27,9.23,27.08,12,35.67a18.08,18.08,0,0,0,5.94,8.16,18.64,18.64,0,0,0,11.67,4.1,18.43,18.43,0,0,0,11.8-4.19c2.7-2.21,4.33-4.4,6.23-9.43C144.88,34.83,155.92,2,156,1.77A1.11,1.11,0,0,0,155.86.77ZM143.59,31.6c-.33,1-1.56,5.44-4.19,8.71a12.71,12.71,0,0,1-10.34,4.63h0a14,14,0,0,1-13.16-9.25c-2.08-6.25-7.77-23-9.49-28h8.33l8.54,25.39a5.67,5.67,0,0,0,5.78,4,5.93,5.93,0,0,0,5.85-4.17c1.19-3.36,3-8.84,4.61-13.67.89-2.67,1.72-5.19,2.39-7.15a1.11,1.11,0,0,0-2.1-.71c-.67,2-1.5,4.5-2.39,7.17-1.6,4.82-3.42,10.29-4.6,13.63A3.69,3.69,0,0,1,129,34.84a3.47,3.47,0,0,1-3.68-2.49L116.56,6.21a1.11,1.11,0,0,0-1-.75H104.83a1.11,1.11,0,0,0-1,1.47c.08.22,7.54,22.1,10,29.46A16.15,16.15,0,0,0,129,47.15h0l.73,0a16.81,16.81,0,0,1-3.42.35,16.44,16.44,0,0,1-10.29-3.62,16,16,0,0,1-5.22-7.11c-2.44-7.43-9.59-28.48-11.55-34.23h19l7,20.83h0L127.91,31v0A1.15,1.15,0,0,0,129,32h0a1.16,1.16,0,0,0,1.12-.92L138,7.66h8.31c-1.65,4.81-6.88,20.09-8.72,25.8A9.17,9.17,0,0,1,129,39.89a9,9,0,0,1-8.64-6.43l-1-3.11c-2-6-4.77-14.17-6.38-19a1.11,1.11,0,1,0-2.1.7c1.61,4.84,4.37,13,6.38,19l1,3.11a12.33,12.33,0,0,0,3.47,5.26A10.83,10.83,0,0,0,129,42.11a11.33,11.33,0,0,0,10.7-8c2.18-6.76,9.14-27,9.21-27.23a1.11,1.11,0,0,0-1-1.47H137.24a1.11,1.11,0,0,0-1,.75L129,27.43,127.56,23l6.86-20.48h19C151.46,8.16,146.28,23.85,143.59,31.6Z"/></svg>